<?xml version="1.0"?>
<svg width="199" height="184" xmlns="http://www.w3.org/2000/svg" xmlns:svg="http://www.w3.org/2000/svg">
 <g class="layer">
  <title>Layer 1</title>
  <path d="m160.79,181.76l-0.15,-0.01l-138.97,-13.56c-5.73,-0.56 -11.01,-3.38 -14.68,-7.85c-3.67,-4.46 -5.44,-10.2 -4.92,-15.98l11.96,-122.55c0.55,-5.78 3.36,-11.09 7.8,-14.8c4.44,-3.7 10.15,-5.48 15.89,-4.96l0.16,0.01l138.88,13.55c5.76,0.57 11.05,3.42 14.72,7.92c3.68,4.49 5.43,10.27 4.87,16.07l-11.86,122.4c-0.57,5.77 -3.37,11.09 -7.81,14.79s-10.15,5.49 -15.89,4.97zm-132.25,-39.38l130.29,12.71l11.09,-113.66l-130.26,-12.74l-11.12,113.69z" fill="#fff" id="svg_1"/>
  <path d="m25.33,40.62l-10.22,104.93c-0.11,1.15 0,2.3 0.33,3.41s0.88,2.12 1.61,3.01c0.73,0.89 1.62,1.63 2.63,2.17s2.12,0.88 3.26,0.99l138.97,13.55c1.14,0.11 2.3,0 3.4,-0.34c1.1,-0.34 2.12,-0.9 3.01,-1.63s1.62,-1.65 2.16,-2.67s0.87,-2.15 0.98,-3.3l10.22,-104.93l-156.35,-15.19z" fill="#fed4f3" id="svg_2" stroke="#3d3dff" stroke-linecap="round" stroke-linejoin="round" stroke-width="0.5" transform="matrix(1 0 0 1 0 0)"/>
  <path d="m161.93,169.29l-139.05,-13.56c-2.46,-0.24 -4.73,-1.45 -6.31,-3.37s-2.34,-4.39 -2.11,-6.87l10.19,-104.93c0.02,-0.18 0.1,-0.34 0.23,-0.45c0.14,-0.11 0.31,-0.17 0.48,-0.15l156.35,15.24c0.17,0.02 0.33,0.1 0.44,0.24s0.17,0.3 0.15,0.48l-10.22,104.93c-0.26,2.46 -1.47,4.73 -3.36,6.31c-1.9,1.58 -4.34,2.34 -6.79,2.13zm-136,-128.01l-10.17,104.33c-0.1,1.06 0,2.13 0.31,3.15c0.31,1.02 0.81,1.97 1.48,2.79s1.5,1.51 2.44,2.01s1.95,0.81 3.01,0.91l138.99,13.56c2.12,0.19 4.23,-0.47 5.88,-1.84s2.67,-3.33 2.88,-5.46l10.19,-104.33l-155.01,-15.12z" fill="#3d3dff" id="svg_6"/>
  <path d="m183.4,38.34c0.12,-1.15 0,-2.31 -0.33,-3.41c-0.33,-1.11 -0.88,-2.14 -1.6,-3.03s-1.63,-1.63 -2.64,-2.17c-1.01,-0.55 -2.12,-0.88 -3.26,-0.99l-138.99,-13.56c-1.14,-0.11 -2.29,0 -3.39,0.34c-1.09,0.34 -2.11,0.89 -3,1.62c-0.88,0.73 -1.61,1.63 -2.15,2.65s-0.87,2.13 -0.99,3.28l-1.59,17.51l156.35,15.24l1.59,-17.48z" fill="#f2f2f2" id="svg_7"/>
  <path d="m181.62,56.47l-156.35,-15.25c-0.17,-0.01 -0.33,-0.08 -0.44,-0.2c-0.12,-0.13 -0.18,-0.29 -0.18,-0.46l1.59,-17.51c0.11,-1.25 0.47,-2.46 1.06,-3.57c0.58,-1.1 1.38,-2.08 2.34,-2.88c0.96,-0.79 2.07,-1.39 3.27,-1.74c1.19,-0.36 2.44,-0.48 3.68,-0.34l139.04,13.56c2.47,0.25 4.75,1.48 6.32,3.41c1.58,1.93 2.33,4.42 2.1,6.91l-1.59,17.48c0,0.1 -0.03,0.19 -0.08,0.28c-0.05,0.09 -0.12,0.16 -0.2,0.22c-0.08,0.05 -0.17,0.09 -0.27,0.1c-0.1,0.02 -0.19,0.01 -0.29,-0.01zm-155.58,-16.5l155.05,15.12l1.53,-16.85c0.2,-2.12 -0.43,-4.23 -1.76,-5.88s-3.25,-2.72 -5.35,-2.97l-138.99,-13.56c-1.05,-0.1 -2.12,0.01 -3.13,0.32s-1.96,0.82 -2.78,1.5c-0.81,0.67 -1.49,1.51 -1.99,2.45c-0.5,0.94 -0.81,1.97 -0.91,3.03l-1.67,16.84z" fill="#3d3dff" id="svg_8"/>
  <path d="m39.26,33.1c2.41,0.22 4.53,-1.57 4.75,-3.99c0.22,-2.42 -1.55,-4.56 -3.95,-4.78s-4.53,1.57 -4.75,3.99c-0.22,2.42 1.55,4.56 3.95,4.78z" fill="#ff6777" id="svg_9"/>
  <path d="m39.2,33.75c-1.31,-0.15 -2.52,-0.8 -3.38,-1.81c-0.86,-1.03 -1.28,-2.36 -1.16,-3.71c0.13,-1.32 0.78,-2.55 1.8,-3.4c1.02,-0.85 2.34,-1.27 3.66,-1.15c1.32,0.12 2.53,0.77 3.38,1.79c0.84,1.02 1.26,2.34 1.14,3.67c-0.05,0.67 -0.24,1.32 -0.55,1.91c-0.31,0.59 -0.74,1.11 -1.26,1.53c-1.01,0.85 -2.31,1.27 -3.63,1.17zm0.8,-8.76c-0.98,-0.09 -1.95,0.21 -2.71,0.84c-0.75,0.63 -1.22,1.54 -1.31,2.52s0.21,1.97 0.84,2.73c0.31,0.37 0.69,0.69 1.12,0.91c0.43,0.23 0.9,0.37 1.38,0.42c0.49,0.04 0.98,-0.01 1.44,-0.16s0.9,-0.38 1.27,-0.7c0.38,-0.31 0.69,-0.69 0.92,-1.13s0.37,-0.91 0.41,-1.39c0.06,-0.49 0.02,-0.99 -0.13,-1.45c-0.14,-0.47 -0.38,-0.91 -0.7,-1.28c-0.62,-0.77 -1.52,-1.26 -2.5,-1.36l-0.03,0.05z" fill="#3d3dff" id="svg_10"/>
  <path d="m56.62,34.78c2.4,0.22 4.53,-1.56 4.75,-3.99c0.22,-2.42 -1.55,-4.56 -3.96,-4.77s-4.53,1.56 -4.75,3.98s1.55,4.56 3.96,4.78z" fill="#00ffac" id="svg_11"/>
  <path d="m56.65,35.53c-0.68,-0.05 -1.35,-0.24 -1.96,-0.56c-0.6,-0.31 -1.14,-0.75 -1.57,-1.29c-0.44,-0.54 -0.75,-1.16 -0.94,-1.82c-0.18,-0.67 -0.23,-1.36 -0.13,-2.05c0.15,-1.32 0.82,-2.52 1.86,-3.35c1.03,-0.83 2.35,-1.21 3.67,-1.07c1.33,0.13 2.56,0.78 3.42,1.81s1.27,2.37 1.15,3.72c-0.13,1.34 -0.77,2.58 -1.8,3.45c-1.03,0.86 -2.36,1.28 -3.7,1.16zm0.8,-8.74c-0.96,-0.11 -1.91,0.15 -2.68,0.74c-0.76,0.59 -1.27,1.45 -1.42,2.4c-0.07,0.51 -0.04,1.03 0.1,1.52s0.37,0.95 0.7,1.35s0.72,0.71 1.17,0.94c0.46,0.24 0.95,0.37 1.46,0.4c0.98,0.08 1.95,-0.22 2.71,-0.85s1.23,-1.54 1.33,-2.52c0.04,-0.49 -0.01,-0.98 -0.15,-1.45c-0.15,-0.47 -0.38,-0.91 -0.7,-1.28c-0.31,-0.38 -0.69,-0.69 -1.12,-0.92c-0.44,-0.23 -0.91,-0.37 -1.39,-0.41l-0.01,0.08z" fill="#3d3dff" id="svg_12"/>
  <path d="m74,36.49c2.4,0.22 4.53,-1.56 4.75,-3.98c0.22,-2.42 -1.55,-4.56 -3.96,-4.78c-2.4,-0.22 -4.53,1.56 -4.75,3.98s1.55,4.57 3.96,4.78z" fill="#00cdff" id="svg_13"/>
  <g fill="#3d3dff" id="svg_14">
   <path d="m73.94,37.1c-0.66,-0.07 -1.3,-0.26 -1.89,-0.58c-0.58,-0.32 -1.1,-0.75 -1.52,-1.27c-0.41,-0.5 -0.73,-1.09 -0.92,-1.72c-0.19,-0.63 -0.25,-1.29 -0.19,-1.95c0.13,-1.33 0.78,-2.56 1.8,-3.41c1.02,-0.86 2.34,-1.27 3.66,-1.15c1.33,0.12 2.56,0.77 3.41,1.8c0.85,1.03 1.26,2.36 1.14,3.7s-0.76,2.57 -1.79,3.43c-1.02,0.86 -2.35,1.27 -3.67,1.15l-0.03,0zm0.8,-8.77c-0.98,-0.09 -1.95,0.22 -2.71,0.85c-0.76,0.63 -1.23,1.53 -1.33,2.52c-0.05,0.48 0,0.97 0.14,1.44c0.14,0.47 0.38,0.9 0.69,1.28c0.63,0.76 1.52,1.25 2.5,1.36c0.98,0.09 1.95,-0.21 2.71,-0.84s1.24,-1.54 1.33,-2.52c0.08,-0.98 -0.21,-1.96 -0.83,-2.72c-0.31,-0.38 -0.69,-0.7 -1.12,-0.93s-0.9,-0.37 -1.38,-0.41l0,-0.03z" id="svg_15"/>
   <path d="m173.92,46.9c-0.18,-0.02 -0.34,-0.12 -0.45,-0.25l-7.96,-9.59c-0.11,-0.14 -0.16,-0.31 -0.14,-0.49c0.02,-0.17 0.1,-0.33 0.24,-0.44c0.13,-0.11 0.31,-0.17 0.48,-0.15c0.17,0.02 0.33,0.11 0.44,0.24l7.83,9.58c0.11,0.13 0.16,0.31 0.15,0.48c-0.02,0.17 -0.1,0.33 -0.23,0.44c-0.1,0.09 -0.22,0.16 -0.36,0.18z" id="svg_16"/>
   <path d="m165.11,46.05c-0.09,-0.01 -0.17,-0.04 -0.25,-0.08c-0.08,-0.05 -0.14,-0.11 -0.2,-0.18c-0.06,-0.06 -0.1,-0.14 -0.13,-0.22c-0.02,-0.08 -0.03,-0.17 -0.02,-0.25s0.03,-0.17 0.07,-0.25c0.04,-0.08 0.1,-0.14 0.17,-0.2l9.55,-7.89c0.13,-0.08 0.29,-0.11 0.44,-0.09s0.3,0.11 0.4,0.23c0.1,0.12 0.16,0.28 0.15,0.44s-0.06,0.31 -0.17,0.42l-9.55,7.9c-0.12,0.11 -0.29,0.17 -0.46,0.17z" id="svg_17"/>
   <path d="m157.28,36.44l-69.49,-6.79c-0.17,-0.02 -0.33,-0.1 -0.44,-0.23c-0.12,-0.14 -0.17,-0.31 -0.15,-0.49c0.01,-0.17 0.1,-0.33 0.23,-0.44c0.13,-0.11 0.31,-0.17 0.48,-0.15l69.49,6.79c0.18,0.02 0.34,0.1 0.45,0.23c0.11,0.14 0.16,0.31 0.15,0.49c-0.03,0.17 -0.11,0.32 -0.24,0.43s-0.3,0.17 -0.48,0.16z" id="svg_18"/>
   <path d="m156.41,45.18l-69.47,-6.77c-0.17,-0.01 -0.33,-0.1 -0.44,-0.23c-0.11,-0.14 -0.17,-0.31 -0.15,-0.48c0.01,-0.18 0.1,-0.34 0.23,-0.45c0.13,-0.11 0.31,-0.17 0.48,-0.15l69.5,6.77c0.17,0.02 0.32,0.1 0.42,0.24c0.11,0.13 0.16,0.3 0.14,0.47c-0.01,0.17 -0.1,0.33 -0.23,0.45c-0.13,0.11 -0.31,0.16 -0.48,0.15z" id="svg_19"/>
  </g>
  <path d="m139.69,104.57c-1.89,20.81 -20.69,36.1 -41.99,34.17c-21.31,-1.93 -37.04,-20.38 -35.15,-41.17c1.89,-20.81 20.69,-36.11 41.99,-34.18c21.31,1.93 37.04,20.38 35.15,41.19z" fill="#ffcc4d" id="svg_20" transform="matrix(1 0 0 1 0 0)"/>
  <path clip-rule="evenodd" d="m72.73,84.37c0.39,0.45 2.38,1.87 2.69,3.14c0.32,1.26 0.52,8.32 2.86,10.61c2.42,2.35 12.32,2.46 14.29,1.71c4.39,-1.67 5.43,-7.34 6.44,-10.18c0.57,-1.6 3.1,-1.37 3.1,-1.37s2.52,0.23 2.8,1.91c0.48,2.97 0.48,8.75 4.51,11.18c1.8,1.09 11.56,2.77 14.36,0.88c2.72,-1.82 4.19,-8.73 4.72,-9.92c0.54,-1.2 2.76,-2.24 3.21,-2.61c0.46,-0.37 0.61,-2.01 0.22,-2.46c-0.77,-0.9 -10.64,-2.53 -21.45,-2.36c-2.16,0.03 -3.02,0.55 -8.08,0.09c-5.05,-0.46 -5.81,-1.13 -7.92,-1.55c-10.6,-2.12 -20.61,-2.29 -21.52,-1.55c-0.46,0.38 -0.61,2.01 -0.22,2.47z" fill="#292f33" fill-rule="evenodd" id="svg_21"/>
  <path d="m121.81,113.83c-0.4,-0.41 -1.02,-0.49 -1.5,-0.2c-0.1,0.05 -9.86,5.84 -21.12,4.82c-11.25,-1.02 -19.84,-8.48 -19.92,-8.55c-0.42,-0.37 -1.05,-0.4 -1.5,-0.07c-0.46,0.33 -0.6,0.93 -0.36,1.42c0.26,0.53 6.49,12.78 21.15,14.1c14.65,1.34 22.99,-9.59 23.34,-10.06c0.34,-0.44 0.3,-1.05 -0.08,-1.46z" fill="#664500" id="svg_22"/>
 </g>
</svg>